:SAMPLES-PER-SECOND 24
:FULLY-SPECIFIED
:DEGREES
481
root  6.8477 38.8002 40.8965 8.97925 -85.2355 -2.52289
RightUpLeg  -20.6854 6.80928 -5.43795
RightLeg  27.2287 -5.54765 -3.31559
RightFoot  -12.5508 -0.0479915 3.5439
RightToes  -2.08645e-008 3.77894e-005 6.81332e-007
Spine  5.31959 -2.60606 7.88181
Spine1  5.36254 -2.2211 -1.14375
HEad  -39.2021 59.5257 -31.0083
LeftShoulder1  9.18106 -14.7281 -43.8713
LeftArm  18.8388 -1.22674 -29.4038
LeftForeArm  73.4806 -78.9908 -58.3444
LeftHand  -0.652486 -3.46621 8.80118
RightShoulder  4.18485 6.98893 33.993
RightArm  2.5721 -22.7559 33.5942
RightForeArm  9.56137 24.1729 4.66501
RightHand  -1.74696 6.28671 -17.5476
LeftUpLeg  -6.98847 -14.6613 10.9802
LeftLeg  20.4023 2.65437 1.42331
LeftFoot  -14.3253 -0.207469 -11.2208
LeftToes  1.24767e-006 1.47042e-008 1.32732e-009
482
root  6.32439 39.1361 40.2679 2.33301 -80.9123 3.8139
RightUpLeg  -17.5356 3.9934 -4.39439
RightLeg  24.8587 -7.11718 -3.80595
RightFoot  -12.5026 -0.0605111 2.37591
RightToes  -2.08645e-008 3.77894e-005 6.81332e-007
Spine  3.35886 -3.26533 5.92058
Spine1  5.9006 -3.6292 1.35501
HEad  -36.5536 58.8411 -29.5608
LeftShoulder1  8.78783 -14.4218 -42.6416
LeftArm  22.7991 -6.5301 -34.764
LeftForeArm  82.8275 -79.8223 -66.2698
LeftHand  -0.621846 -3.6718 8.22346
RightShoulder  4.16004 6.97976 33.7924
RightArm  3.74351 -26.4017 31.5415
RightForeArm  9.90146 26.4689 5.1631
RightHand  -1.6859 6.08086 -17.2472
LeftUpLeg  -7.64449 -12.8985 12.152
LeftLeg  20.0661 -0.868329 -0.022868
LeftFoot  -10.5538 0.15042 -12.6178
LeftToes  1.24767e-006 1.47042e-008 1.32732e-009
483
root  5.87707 39.4393 39.7448 0.19458 -78.1069 5.5495
RightUpLeg  -14.6993 2.10149 -3.79315
RightLeg  22.2418 -7.84538 -3.72866
RightFoot  -11.9507 -0.0722416 1.64073
RightToes  -2.08645e-008 3.77894e-005 6.81332e-007
Spine  1.91329 -3.58906 4.47329
Spine1  6.38592 -4.30468 2.54293
HEad  -34.8992 58.1584 -28.6057
LeftShoulder1  8.24919 -13.9831 -40.9148
LeftArm  25.8723 -10.3749 -39.4728
LeftForeArm  96.3711 -80.5303 -79.2834
LeftHand  -0.589323 -4.07459 7.50003
RightShoulder  4.13465 6.99933 33.4779
RightArm  5.4353 -29.2854 29.8216
RightForeArm  12.4142 31.3598 6.18685
RightHand  -1.67434 6.35864 -16.7459
LeftUpLeg  -8.14961 -9.08116 12.3344
LeftLeg  20.3388 -2.07424 -0.523471
LeftFoot  -6.69451 0.611358 -14.027
LeftToes  1.24767e-006 1.47042e-008 1.32732e-009
484
root  5.53166 39.5828 39.2824 -2.09302 -76.9082 7.52515
RightUpLeg  -13.1448 1.75345 -3.43259
RightLeg  21.231 -8.71267 -3.93029
RightFoot  -12.0209 -0.0735507 1.32998
RightToes  -2.08645e-008 3.77894e-005 6.81332e-007
Spine  1.24168 -3.62404 3.28479
Spine1  6.39313 -4.39067 2.71106
HEad  -34.3649 57.8481 -28.1478
LeftShoulder1  7.73589 -13.5404 -39.2247
LeftArm  27.3984 -12.4649 -42.1583
LeftForeArm  115.268 -80.6129 -98.037
LeftHand  -0.572481 -4.41714 7.05928
RightShoulder  4.10961 7.00761 33.2092
RightArm  7.76434 -29.6884 28.8141
RightForeArm  14.616 35.9298 7.26239
RightHand  -1.61832 6.5357 -15.9728
LeftUpLeg  -8.66815 -4.63238 11.7131
LeftLeg  21.5204 -0.662519 0.0447866
LeftFoot  -3.89783 0.975724 -14.5975
LeftToes  1.24767e-006 1.47042e-008 1.32732e-009
485
root  5.31783 39.4868 38.8592 -3.58032 -77.0319 8.7085
RightUpLeg  -13.3367 2.40488 -2.8977
RightLeg  22.7982 -9.14993 -4.41456
RightFoot  -13.1385 -0.0730502 1.01075
RightToes  -2.08645e-008 3.77894e-005 6.81332e-007
Spine  1.91908 -3.3659 2.26809
Spine1  5.35741 -4.11061 2.83896
HEad  -35.4616 57.5164 -28.7352
LeftShoulder1  7.35656 -13.1892 -37.965
LeftArm  27.2456 -12.966 -42.859
LeftForeArm  133.222 -79.7088 -115.843
LeftHand  -0.534745 -4.65914 6.46812
RightShoulder  4.05217 6.97537 32.7816
RightArm  9.99418 -27.6785 28.4742
RightForeArm  16.6372 40.4255 8.4795
RightHand  -1.48317 6.55793 -14.6542
LeftUpLeg  -9.37849 -1.7227 11.0588
LeftLeg  23.7957 2.46603 1.52742
LeftFoot  -3.14052 1.03316 -14.0922
LeftToes  1.24767e-006 1.47042e-008 1.32732e-009
486
root  5.23453 39.1811 38.5 -3.31885 -77.6671 7.74982
RightUpLeg  -14.4071 2.14051 -1.93348
RightLeg  26.3099 -8.24744 -4.63593
RightFoot  -14.7905 -0.0901837 0.331961
RightToes  -2.08645e-008 3.77894e-005 6.81332e-007
Spine  3.72009 -2.97253 1.98215
Spine1  4.05966 -3.68396 3.03317
HEad  -37.9143 56.5166 -30.2893
LeftShoulder1  7.376 -13.2115 -38.0224
LeftArm  25.9124 -12.8728 -41.1477
LeftForeArm  146.118 -78.0511 -129.287
LeftHand  -0.501791 -4.58891 6.12535
RightShoulder  4.02331 6.94564 32.6154
RightArm  11.0945 -23.396 28.6143
RightForeArm  18.9664 44.3594 9.65284
RightHand  -1.4051 6.43275 -14.0511
LeftUpLeg  -10.0112 -1.3073 11.0186
LeftLeg  26.9024 6.04363 3.66491
LeftFoot  -4.14082 0.871368 -13.4039
LeftToes  1.24767e-006 1.47042e-008 1.32732e-009
487
root  5.23095 38.7839 38.2345 -1.07471 -77.9915 4.44165
RightUpLeg  -15.3725 0.523021 -0.691865
RightLeg  30.196 -6.6773 -4.41829
RightFoot  -16.5215 -0.134674 -0.50683
RightToes  -2.08645e-008 3.77894e-005 6.81332e-007
Spine  5.22542 -2.76432 3.0447
Spine1  4.13295 -3.27021 2.39943
HEad  -40.6295 55.1963 -32.0569
LeftShoulder1  7.86362 -13.6726 -39.5998
LeftArm  23.9969 -13.0449 -36.9855
LeftForeArm  150.881 -76.6696 -135.849
LeftHand  -0.524977 -4.09577 6.69875
RightShoulder  4.03846 6.92452 32.8392
RightArm  9.45194 -17.2002 30.269
RightForeArm  20.9217 45.4794 9.9218
RightHand  -1.47818 6.40261 -14.7922
LeftUpLeg  -10.344 -2.64555 11.5386
LeftLeg  30.1167 9.35729 6.1641
LeftFoot  -5.76472 0.67108 -13.028
LeftToes  1.24767e-006 1.47042e-008 1.32732e-009
488
root  5.2217 38.4318 38.0223 1.18848 -77.8873 1.34369
RightUpLeg  -16.0803 -0.732264 0.344196
RightLeg  33.2161 -5.71685 -4.26917
RightFoot  -17.972 -0.183761 -1.07775
RightToes  -2.08645e-008 3.77894e-005 6.81332e-007
Spine  5.44798 -2.53813 4.43052
Spine1  5.5145 -2.70669 1.11271
HEad  -42.3302 54.1607 -32.6762
LeftShoulder1  8.40953 -14.1492 -41.3517
LeftArm  22.1152 -12.4289 -32.7458
LeftForeArm  147.92 -77.0909 -133.657
LeftHand  -0.570861 -3.73025 7.52572
RightShoulder  4.02295 6.87254 32.884
RightArm  4.92118 -12.2614 33.4822
RightForeArm  22.5534 46.3096 10.1077
RightHand  -1.63994 6.44588 -16.3003
LeftUpLeg  -10.4879 -4.54723 12.0048
LeftLeg  32.4206 11.8782 8.36052
LeftFoot  -7.37653 0.502956 -13.2114
LeftToes  1.24767e-006 1.47042e-008 1.32732e-009
489
root  5.14022 38.3201 37.825 1.71753 -77.3365 0.711121
RightUpLeg  -16.2736 -0.745204 0.873594
RightLeg  34.0932 -6.08806 -4.66785
RightFoot  -18.4807 -0.204472 -1.27881
RightToes  -2.08645e-008 3.77894e-005 6.81332e-007
Spine  4.58338 -2.07651 4.6257
Spine1  6.69088 -2.04612 0.226967
HEad  -42.2324 53.5154 -31.2288
LeftShoulder1  8.6898 -14.3686 -42.2681
LeftArm  20.4429 -8.37394 -29.8367
LeftForeArm  145.74 -77.9142 -129.89
LeftHand  -0.592415 -3.75149 7.78462
RightShoulder  4.01191 6.80773 33.0214
RightArm  0.785747 -12.0151 36.0526
RightForeArm  24.886 52.6432 12.7424
RightHand  -1.62657 5.74778 -17.1458
LeftUpLeg  -10.5768 -5.9958 11.9106
LeftLeg  32.7886 14.4429 10.1584
LeftFoot  -7.50838 0.48606 -12.9915
LeftToes  1.24767e-006 1.47042e-008 1.32732e-009
490
root  4.99388 38.6322 37.7014 1.02344 -76.2592 2.02826
RightUpLeg  -15.4401 -0.711842 0.813118
RightLeg  31.6687 -7.09023 -4.92847
RightFoot  -17.1959 -0.174274 -1.14014
RightToes  -2.08645e-008 3.77894e-005 6.81332e-007
Spine  3.11225 -1.80687 3.65613
Spine1  7.16367 -1.76478 -0.103109
HEad  -41.2591 53.3433 -29.2153
LeftShoulder1  8.77015 -14.4136 -42.5712
LeftArm  18.6123 0.189091 -27.1459
LeftForeArm  153.451 -76.5675 -136.736
LeftHand  -0.568453 -3.62152 7.58022
RightShoulder  4.06291 6.78453 33.6035
RightArm  0.369913 -15.5927 36.7743
RightForeArm  30.8524 63.2301 19.6667
RightHand  -1.3648 4.66212 -15.9387
LeftUpLeg  -10.5989 -5.78461 11.0245
LeftLeg  30.9859 18.2863 11.8085
LeftFoot  -4.48233 0.595819 -9.57928
LeftToes  1.24767e-006 1.47042e-008 1.32732e-009
491
root  4.85782 39.2911 37.7261 0.122559 -75.2081 3.9259
RightUpLeg  -13.8133 -1.61705 0.153083
RightLeg  26.6345 -7.14184 -4.10407
RightFoot  -13.9474 -0.11147 -0.753012
RightToes  -2.08645e-008 3.77894e-005 6.81332e-007
Spine  1.33841 -1.75676 2.44199
Spine1  7.59216 -1.71732 -0.319714
HEad  -40.6978 53.4769 -28.3346
LeftShoulder1  8.62923 -14.2785 -42.1804
LeftArm  16.6062 10.7937 -25.0342
LeftForeArm  161.133 -73.7858 -145.586
LeftHand  -0.517309 -3.13184 7.28773
RightShoulder  4.09252 6.78367 33.8934
RightArm  2.70287 -20.2718 36.4617
RightForeArm  43.2333 72.0724 31.403
RightHand  -1.14256 4.48309 -13.6551
LeftUpLeg  -10.4196 -2.58607 9.26042
LeftLeg  27.3526 19.7032 11.0393
LeftFoot  -1.35203 0.481681 -5.41807
LeftToes  1.24767e-006 1.47042e-008 1.32732e-009
492
root  4.82062 40.0134 37.8905 -0.493164 -74.8408 5.56677
RightUpLeg  -12.3498 -3.01191 -0.824083
RightLeg  21.3747 -5.72136 -2.68159
RightFoot  -9.74862 -0.063686 -0.198414
RightToes  -2.08645e-008 3.77894e-005 6.81332e-007
Spine  -0.131063 -1.3631 1.57323
Spine1  7.81758 -1.2315 -0.623089
HEad  -40.179 53.2578 -27.6955
LeftShoulder1  8.2243 -13.9233 -40.932
LeftArm  14.2774 20.5087 -24.4509
LeftForeArm  164.187 -72.0375 -149.447
LeftHand  -0.495702 -2.96123 7.12556
RightShoulder  4.06753 6.76944 33.7064
RightArm  6.09232 -25.1873 35.3077
RightForeArm  62.119 77.5881 49.7027
RightHand  -1.03091 4.6993 -12.1062
LeftUpLeg  -10.0406 3.34966 6.90947
LeftLeg  23.4947 13.7133 6.77052
LeftFoot  -1.4985 0.644239 -7.44005
LeftToes  1.24767e-006 1.47042e-008 1.32732e-009
493
root  4.92973 40.5433 38.1433 0.192627 -75.1397 5.69147
RightUpLeg  -11.7209 -3.79906 -1.47928
RightLeg  17.6931 -4.19749 -1.68089
RightFoot  -6.03573 -0.0715888 0.641808
RightToes  -2.08645e-008 3.77894e-005 6.81332e-007
Spine  -0.759908 -0.631107 1.3384
Spine1  7.40158 -0.357122 -0.952676
HEad  -39.4601 52.5572 -26.5987
LeftShoulder1  7.73452 -13.4896 -39.347
LeftArm  11.4211 28.4678 -24.6835
LeftForeArm  165.545 -71.0706 -151.217
LeftHand  -0.499065 -3.25839 6.94581
RightShoulder  4.03441 6.73569 33.5144
RightArm  10.1158 -29.2652 33.1453
RightForeArm  86.9422 80.1151 75.9319
RightHand  -0.905905 4.53271 -10.8469
LeftUpLeg  -9.90089 8.59058 4.81618
LeftLeg  22.459 4.87553 2.51483
LeftFoot  -2.20613 1.13804 -13.9665
LeftToes  1.24767e-006 1.47042e-008 1.32732e-009
494
root  5.15554 40.7629 38.4339 2.55078 -75.4051 3.69592
RightUpLeg  -11.5605 -3.78043 -1.54679
RightLeg  15.6496 -3.79666 -1.30971
RightFoot  -3.85336 -0.120167 1.43211
RightToes  -2.08645e-008 3.77894e-005 6.81332e-007
Spine  -0.735713 -0.159013 1.47084
Spine1  6.98264 0.185311 -1.13557
HEad  -39.4582 51.6467 -26.0447
LeftShoulder1  7.2466 -13.0471 -37.6883
LeftArm  7.94286 34.4793 -25.4258
LeftForeArm  165.152 -70.3879 -152.191
LeftHand  -0.470105 -3.13619 6.64086
RightShoulder  3.97481 6.68036 33.1445
RightArm  13.8121 -31.2029 31.116
RightForeArm  104.741 80.2836 95.5765
RightHand  -0.762287 4.47582 -9.23203
LeftUpLeg  -10.1719 9.79842 3.38876
LeftLeg  24.3334 2.16288 1.40306
LeftFoot  -1.32821 1.43888 -16.2658
LeftToes  1.24767e-006 1.47042e-008 1.32732e-009
495
root  5.43985 40.6406 38.7612 6.47974 -75.0869 -0.448608
RightUpLeg  -11.329 -3.8811 -1.05898
RightLeg  14.9149 -3.93105 -1.19975
RightFoot  -3.96212 -0.129482 1.58948
RightToes  -2.08645e-008 3.77894e-005 6.81332e-007
Spine  -0.546212 -0.0882984 1.97257
Spine1  7.26873 0.227434 -1.15062
HEad  -40.0364 50.4546 -26.0049
LeftShoulder1  6.86092 -12.7146 -36.2552
LeftArm  4.45084 38.1482 -26.3786
LeftForeArm  163.307 -70.5943 -151.632
LeftHand  -0.436375 -2.56622 6.58549
RightShoulder  3.89855 6.63004 32.5855
RightArm  15.9345 -31.3732 29.9987
RightForeArm  107.901 80.175 99.3361
RightHand  -0.715296 4.65034 -8.54309
LeftUpLeg  -10.0096 8.29797 2.85772
LeftLeg  26.0264 3.9927 2.45936
LeftFoot  -2.05312 1.09879 -13.3286
LeftToes  1.24767e-006 1.47042e-008 1.32732e-009
